<?xml version="1.0" encoding="UTF-8" standalone="no"?>
<svg xmlns="http://www.w3.org/2000/svg" width="100%" height="100%" viewBox="0 0 800 600">
  <!-- Background gradient -->
  <defs>
    <linearGradient id="bg-gradient" x1="0%" y1="0%" x2="0%" y2="100%">
     <stop offset="0%" style="stop-color:#87CEEB;stop-opacity:1" />
      <stop offset="100%" style="stop-color:#5F9EA0;stop-opacity:1" />
    </linearGradient>

      <!-- Pattern for the pixel art effect -->
    <pattern id="pixelPattern" width="20" height="20" patternUnits="userSpaceOnUse">
      <rect width="20" height="20" fill="rgba(255,255,255,0.05)" />
      <rect width="10" height="10" fill="rgba(255,255,255,0)" />
      <rect width="10" height="10" x="10" y="10" fill="rgba(255,255,255,0)" />
    </pattern>
  </defs>

  <!-- Background rectangle -->
  <rect width="100%" height="100%" fill="url(#bg-gradient)" />

  <!-- Overlay the pixel pattern -->
  <rect width="100%" height="100%" fill="url(#pixelPattern)" />
   <rect x="650" y="250" width="20" height="20" fill="#3498DB" opacity="0.5" />
  <!-- Decorative pixel art clouds -->
  <g opacity="0.7">
    <!-- Cloud 1 -->
    <rect x="100" y="50" width="60" height="20" fill="white" />
    <rect x="80" y="70" width="100" height="30" fill="white" />
    
    <!-- Cloud 2 -->
    <rect x="400" y="80" width="80" height="20" fill="white" />
    <rect x="380" y="100" width="120" height="30" fill="white" />
    
    <!-- Cloud 3 -->
    <rect x="600" y="30" width="70" height="20" fill="white" />
    <rect x="580" y="50" width="110" height="30" fill="white" />
    
    <!-- Small floating pixel island 1 -->
    <rect x="150" y="400" width="100" height="20" fill="#8B4513" />
    <rect x="130" y="420" width="140" height="30" fill="#A0522D" />
    
    <!-- Small floating pixel island 2 -->
    <rect x="500" y="300" width="120" height="20" fill="#8B4513" />
    <rect x="480" y="320" width="160" height="30" fill="#A0522D" />
  </g>

  <!-- Add some pixel stars -->
  <rect x="50" y="150" width="4" height="4" fill="white" />
  <rect x="250" y="100" width="4" height="4" fill="white" />
  <rect x="350" y="200" width="4" height="4" fill="white" />
  <rect x="650" y="150" width="4" height="4" fill="white" />
  <rect x="750" y="250" width="4" height="4" fill="white" />
  <rect x="200" y="250" width="4" height="4" fill="white" />
</svg>